<svg width="128" height="128" viewBox="0 0 128 128" fill="none" xmlns="http://www.w3.org/2000/svg">
<rect x="2.5" y="2.5" width="123" height="123" rx="12.5" fill="#15171A" stroke="url(#paint0_linear_461_33)" stroke-width="5" stroke-linejoin="round"/>
<g filter="url(#filter0_d_461_33)">
<path d="M34.24 109V18.12H72.384C76.48 18.12 80.2347 18.9733 83.648 20.68C87.0613 22.3867 90.048 24.648 92.608 27.464C95.168 30.28 97.1307 33.4373 98.496 36.936C99.8613 40.4347 100.544 44.0187 100.544 47.688C100.544 52.7227 99.392 57.544 97.088 62.152C94.8693 66.6747 91.6693 70.344 87.488 73.16C83.392 75.976 78.6133 77.384 73.152 77.384H48.576V109H34.24ZM48.576 64.712H72.256C74.9867 64.712 77.376 63.9867 79.424 62.536C81.472 61 83.0507 58.952 84.16 56.392C85.3547 53.832 85.952 50.9307 85.952 47.688C85.952 44.36 85.2693 41.416 83.904 38.856C82.5387 36.296 80.7467 34.3333 78.528 32.968C76.3947 31.5173 74.048 30.792 71.488 30.792H48.576V64.712Z" fill="url(#paint1_linear_461_33)"/>
</g>
<defs>
<linearGradient id="paint0_linear_461_33" x1="-10" y1="-8" x2="128" y2="128" gradientUnits="userSpaceOnUse">
<stop stop-color="#01E990"/>
<stop offset="1" stop-color="#6289F1"/>
</linearGradient>
<linearGradient id="paint1_linear_461_33" x1="31.5" y1="27.83" x2="69.1676" y2="97.8712" gradientUnits="userSpaceOnUse">
<stop offset="0.0729167" stop-color="#00E990"/>
<stop offset="0.501238" stop-color="#54B2BD"/>
<stop offset="0.872228" stop-color="#6287F3"/>
</linearGradient>
</defs>
</svg>
