<svg width="54" height="54" viewBox="0 0 54 54" fill="none" xmlns="http://www.w3.org/2000/svg">
<path d="M14.6232 12.717C17.7054 10.0371 21.5757 8.43264 25.65 8.14589V12.15C25.65 12.508 25.7922 12.8514 26.0454 13.1046C26.2986 13.3578 26.642 13.5 27 13.5C27.358 13.5 27.7014 13.3578 27.9546 13.1046C28.2078 12.8514 28.35 12.508 28.35 12.15V8.14859C32.6519 8.45702 36.7192 10.2269 39.8769 13.1647C43.0347 16.1024 45.0932 20.0315 45.711 24.3H40.5C40.142 24.3 39.7986 24.4422 39.5454 24.6954C39.2922 24.9486 39.15 25.292 39.15 25.65C39.15 26.008 39.2922 26.3514 39.5454 26.6046C39.7986 26.8578 40.142 27 40.5 27H45.9C45.8967 29.6089 45.3662 32.1903 44.3404 34.589C43.3145 36.9878 41.8145 39.1545 39.9303 40.959C39.6822 41.2074 39.5406 41.5428 39.5356 41.8938C39.5306 42.2449 39.6626 42.5842 39.9036 42.8395C40.1445 43.0949 40.4755 43.2464 40.8263 43.2617C41.1771 43.2771 41.5201 43.1552 41.7825 42.9219C43.9343 40.8652 45.6476 38.3944 46.8193 35.658C47.9909 32.9217 48.5966 29.9766 48.6 27C48.6 21.2713 46.3243 15.7773 42.2735 11.7265C38.2227 7.6757 32.7287 5.39999 27 5.39999C21.2713 5.39999 15.7773 7.6757 11.7265 11.7265C7.6757 15.7773 5.39999 21.2713 5.39999 27C5.39999 33.1965 8.15399 38.988 12.3201 42.9219C12.4492 43.0435 12.6009 43.1385 12.7667 43.2015C12.9325 43.2645 13.109 43.2942 13.2863 43.2889C13.4635 43.2836 13.638 43.2435 13.7998 43.1708C13.9615 43.0981 14.1074 42.9943 14.229 42.8652C14.3506 42.7361 14.4456 42.5844 14.5086 42.4186C14.5716 42.2528 14.6013 42.0763 14.596 41.899C14.5907 41.7217 14.5506 41.5473 14.4779 41.3855C14.4052 41.2238 14.3014 41.0779 14.1723 40.9563C10.5165 37.503 8.09999 32.4081 8.09999 27H13.5C13.858 27 14.2014 26.8578 14.4546 26.6046C14.7078 26.3514 14.85 26.008 14.85 25.65C14.85 25.292 14.7078 24.9486 14.4546 24.6954C14.2014 24.4422 13.858 24.3 13.5 24.3H8.28899C8.80405 20.7166 10.3415 17.3577 12.717 14.6259L16.5942 18.5058C16.8477 18.7593 17.1915 18.9017 17.55 18.9017C17.9085 18.9017 18.2523 18.7593 18.5058 18.5058C18.7593 18.2523 18.9017 17.9085 18.9017 17.55C18.9017 17.1915 18.7593 16.8477 18.5058 16.5942L14.6232 12.717ZM36.3123 15.6789C36.5576 15.484 36.8631 15.3806 37.1764 15.3863C37.4897 15.392 37.7912 15.5064 38.0293 15.7101C38.2675 15.9137 38.4273 16.1938 38.4815 16.5024C38.5358 16.811 38.4809 17.1289 38.3265 17.4015L38.0295 17.9307C36.9437 19.848 35.8511 21.7614 34.7517 23.6709C33.8728 25.1989 32.9817 26.72 32.0787 28.2339C31.7403 28.8035 31.3947 29.3687 31.0419 29.9295C30.7719 30.3534 30.5073 30.7557 30.3129 30.9825C29.6154 31.7995 28.622 32.3061 27.551 32.3906C26.4801 32.4752 25.4194 32.1309 24.6024 31.4334C23.7853 30.7359 23.2788 29.7425 23.1943 28.6715C23.1097 27.6006 23.454 26.5399 24.1515 25.7229C24.3459 25.4961 24.6996 25.1694 25.0776 24.8373C25.4826 24.4782 26.0037 24.0381 26.5896 23.544C27.7668 22.5612 29.241 21.357 30.6774 20.196C32.3907 18.8101 34.1097 17.4313 35.8344 16.0596L36.3123 15.6789Z" fill="white"/>
</svg>
