<svg width="54" height="54" viewBox="0 0 54 54" fill="none" xmlns="http://www.w3.org/2000/svg">
<path d="M33.75 47.5H9C7.80653 47.5 6.66193 47.0259 5.81802 46.182C4.97411 45.3381 4.5 44.1935 4.5 43V11.5C4.5 10.3065 4.97411 9.16193 5.81802 8.31802C6.66193 7.47411 7.80653 7 9 7H45C46.1935 7 47.3381 7.47411 48.182 8.31802C49.0259 9.16193 49.5 10.3065 49.5 11.5V34" stroke="white" stroke-width="3.375" stroke-linecap="round"/>
<path d="M4.5 16H49.5M11.25 11.5225L11.2725 11.4977M18 11.5225L18.0225 11.4977M24.75 11.5225L24.7725 11.4977M40.5 50.2967L45.2723 45.5222M45.2723 45.5222L50.0468 40.75M45.2723 45.5222L40.5 40.75M45.2723 45.5222L50.0468 50.2967" stroke="white" stroke-width="3.375" stroke-linecap="round" stroke-linejoin="round"/>
</svg>
