<svg width="642" height="585" viewBox="0 0 642 585" fill="none" xmlns="http://www.w3.org/2000/svg">
<path opacity="0.4" fill-rule="evenodd" clip-rule="evenodd" d="M305.861 19.9454C391.111 44.4542 406.184 123.389 462.469 174.867C498.053 207.412 546.728 229.396 574.424 265.572C607.761 309.115 656.127 355.724 637.474 403.448C618.739 451.381 546.696 478.581 482.952 499.602C427.809 517.787 364.978 502.621 305.861 512.805C217.041 528.107 124.495 613.651 52.5799 573.745C-20.6127 533.13 63.4127 447.238 69.3964 381.59C72.7069 345.271 85.3476 311.512 79.7802 275.331C67.6316 196.38 -41.6725 114.381 17.921 47.0631C70.5811 -12.4229 213.915 -6.48827 305.861 19.9454Z" fill="#6288F3"/>
</svg>
