<svg width="623" height="579" viewBox="0 0 623 579" fill="none" xmlns="http://www.w3.org/2000/svg">
<path opacity="0.4" fill-rule="evenodd" clip-rule="evenodd" d="M341.853 130.243C359.131 142.146 383.166 125.217 403.873 128.382C428.91 132.208 451.303 143.303 475.542 150.675C524.212 165.477 601.912 146.236 619.857 194.069C636.33 237.977 570.561 274.888 532.137 301.53C502.382 322.161 447.797 296.547 428.107 327.022C405.202 362.471 448.565 412.097 434.872 452.065C417.651 502.333 394.578 582.863 341.853 578.792C286.534 574.521 290.119 481.777 255.468 438.212C236.775 414.711 213.539 394.591 185.989 382.833C129.501 358.726 46.1908 384.264 10.8558 333.82C-17.8232 292.879 18.198 228.247 51.8293 191.311C85.7919 154.011 157.253 174.459 190.506 136.518C221.271 101.414 172.252 2.78343 218.748 0.855814C278.815 -1.63438 292.259 96.0803 341.853 130.243Z" fill="#01E990"/>
</svg>
