<svg width="491" height="591" viewBox="0 0 491 591" fill="none" xmlns="http://www.w3.org/2000/svg">
<path opacity="0.4" fill-rule="evenodd" clip-rule="evenodd" d="M298.135 0.75184C354.225 -7.0847 409.056 48.7707 431.156 101.016C452.267 150.923 393.972 205.946 407.17 258.513C416.59 296.032 492.251 297.437 490.169 336.069C488.174 373.092 415.045 362.855 399.727 396.607C373.451 454.504 430.889 546.544 378.408 582.324C333.974 612.618 275.073 546.387 240.468 505.185C213.141 472.649 231.491 421.128 211.511 383.611C198.131 358.489 167.317 350.303 147.247 330.142C95.7591 278.42 -13.043 244.266 1.5449 172.692C14.4244 109.501 131.277 167.428 186.994 135.128C238.287 105.392 239.442 8.95196 298.135 0.75184Z" fill="#01E990"/>
</svg>
