<svg width="457" height="445" viewBox="0 0 457 445" fill="none" xmlns="http://www.w3.org/2000/svg">
<path opacity="0.4" fill-rule="evenodd" clip-rule="evenodd" d="M227.078 54.757C264.725 41.987 291.393 -3.11839 331.141 0.170995C366.194 3.07186 398.237 36.6531 406.919 69.6399C416.603 106.437 385.14 141.453 378.158 178.818C374.278 199.58 366.161 221.981 374.835 241.339C394.02 284.159 458.286 308.087 456.98 354.739C455.996 389.935 405.578 409.468 369.932 416.553C333.975 423.701 299.245 402.138 263.731 393.154C240.247 387.214 218.495 366.38 195.006 372.302C145.992 384.661 112.931 456.088 63.9718 443.524C25.4715 433.644 49.8486 368.753 37.9077 331.986C28.4999 303.02 -5.9634 278.943 0.896425 249.315C8.51816 216.395 58.255 208.365 73.5483 178.048C86.0326 153.299 62.6239 119.616 78.0092 96.4473C92.8859 74.0441 124.676 68.631 151.116 61.2366C175.805 54.3318 202.826 62.9836 227.078 54.757Z" fill="#56AFC2"/>
</svg>
