<svg width="64" height="64" viewBox="0 0 64 64" fill="none" xmlns="http://www.w3.org/2000/svg">
<path d="M18.704 12.8C17.1648 12.8 16 13.9968 16 15.3728V19.2H12.8V15.3728C12.8 12.1408 15.488 9.60001 18.704 9.60001H51.696C54.912 9.60001 57.6 12.1408 57.6 15.3728V39.0272C57.6 42.2592 54.912 44.8 51.696 44.8H32V41.6H51.696C53.2352 41.6 54.4 40.4032 54.4 39.0272V15.3728C54.4 13.9968 53.2352 12.8 51.696 12.8H18.704ZM32 38.4H40C40.4244 38.4 40.8313 38.2314 41.1314 37.9314C41.4315 37.6313 41.6 37.2244 41.6 36.8C41.6 36.3757 41.4315 35.9687 41.1314 35.6686C40.8313 35.3686 40.4244 35.2 40 35.2H32V38.4ZM16 48C15.5757 48 15.1687 48.1686 14.8687 48.4686C14.5686 48.7687 14.4 49.1757 14.4 49.6C14.4 50.0244 14.5686 50.4313 14.8687 50.7314C15.1687 51.0314 15.5757 51.2 16 51.2H19.2C19.6244 51.2 20.0313 51.0314 20.3314 50.7314C20.6315 50.4313 20.8 50.0244 20.8 49.6C20.8 49.1757 20.6315 48.7687 20.3314 48.4686C20.0313 48.1686 19.6244 48 19.2 48H16ZM6.40002 27.2C6.40002 25.927 6.90574 24.7061 7.80591 23.8059C8.70609 22.9057 9.92699 22.4 11.2 22.4H24C25.2731 22.4 26.494 22.9057 27.3941 23.8059C28.2943 24.7061 28.8 25.927 28.8 27.2V52.8C28.8 54.073 28.2943 55.2939 27.3941 56.1941C26.494 57.0943 25.2731 57.6 24 57.6H11.2C9.92699 57.6 8.70609 57.0943 7.80591 56.1941C6.90574 55.2939 6.40002 54.073 6.40002 52.8V27.2ZM11.2 25.6C10.7757 25.6 10.3687 25.7686 10.0687 26.0686C9.7686 26.3687 9.60002 26.7757 9.60002 27.2V52.8C9.60002 53.2244 9.7686 53.6313 10.0687 53.9314C10.3687 54.2314 10.7757 54.4 11.2 54.4H24C24.4244 54.4 24.8313 54.2314 25.1314 53.9314C25.4315 53.6313 25.6 53.2244 25.6 52.8V27.2C25.6 26.7757 25.4315 26.3687 25.1314 26.0686C24.8313 25.7686 24.4244 25.6 24 25.6H11.2Z" fill="white"/>
</svg>
