<svg width="64" height="64" viewBox="0 0 64 64" fill="none" xmlns="http://www.w3.org/2000/svg">
<path fill-rule="evenodd" clip-rule="evenodd" d="M17.9328 14.1399C15.7209 16.3192 14.03 18.9703 12.9866 21.8949C11.9432 24.8196 11.5742 27.9422 11.9072 31.0295C11.9382 31.4442 11.8065 31.8547 11.54 32.1739C11.2736 32.4932 10.8933 32.6962 10.4797 32.7399C10.0662 32.7836 9.65186 32.6645 9.32457 32.408C8.99728 32.1514 8.78274 31.7775 8.7264 31.3655C8.34233 27.7997 8.76882 24.1932 9.974 20.8154C11.1792 17.4375 13.1319 14.3756 15.6864 11.8583C25.0848 2.58788 40.2464 2.73828 49.5488 12.1719C58.8512 21.6023 58.7904 36.7639 49.3888 46.0343C45.0371 50.3335 39.1949 52.7887 33.0784 52.8887C30.7659 52.9299 28.4596 52.6378 26.2304 52.0215C25.8213 51.9086 25.4739 51.6378 25.2644 51.2688C25.055 50.8997 25.0007 50.4626 25.1136 50.0535C25.2265 49.6444 25.4972 49.2969 25.8663 49.0875C26.2354 48.8781 26.6725 48.8238 27.0816 48.9367C29.0149 49.4714 31.0152 49.7246 33.0208 49.6887C38.3165 49.6041 43.3753 47.4788 47.1424 43.7559C55.2736 35.7367 55.3408 22.6039 47.2704 14.4183C39.2 6.23268 26.064 6.12068 17.9328 14.1399Z" fill="white"/>
<path fill-rule="evenodd" clip-rule="evenodd" d="M11.5008 33.0615C11.3609 33.2182 11.1914 33.3459 11.0022 33.4372C10.8129 33.5284 10.6075 33.5815 10.3977 33.5934C10.1879 33.6053 9.97785 33.5757 9.77948 33.5064C9.58111 33.4371 9.39834 33.3294 9.2416 33.1895L3.7376 28.2935C3.5684 28.1577 3.4286 27.9888 3.32668 27.7973C3.22477 27.6058 3.16288 27.3955 3.14478 27.1793C3.12667 26.9631 3.15273 26.7454 3.22137 26.5396C3.29001 26.3338 3.3998 26.1441 3.54405 25.982C3.68831 25.8199 3.86401 25.6889 4.0605 25.5969C4.25698 25.5048 4.47012 25.4537 4.68698 25.4466C4.90383 25.4395 5.11986 25.4766 5.32193 25.5557C5.52399 25.6347 5.70788 25.754 5.8624 25.9063L11.3664 30.8023C11.5236 30.9418 11.6518 31.1109 11.7436 31.2999C11.8355 31.489 11.8891 31.6942 11.9016 31.904C11.9141 32.1138 11.8851 32.324 11.8164 32.5226C11.7476 32.7212 11.6404 32.9043 11.5008 33.0615Z" fill="white"/>
<path fill-rule="evenodd" clip-rule="evenodd" d="M9.024 32.8599C9.15007 33.028 9.30801 33.1696 9.48881 33.2766C9.66961 33.3837 9.86972 33.4541 10.0777 33.4838C10.2857 33.5135 10.4975 33.502 10.7011 33.4498C10.9046 33.3977 11.0959 33.3059 11.264 33.1799L17.664 28.3799C18.0035 28.1253 18.2279 27.7462 18.2879 27.3262C18.3479 26.9061 18.2386 26.4794 17.984 26.1399C17.7294 25.8004 17.3504 25.576 16.9303 25.516C16.5102 25.4559 16.0835 25.5653 15.744 25.8199L9.344 30.6199C9.00452 30.8745 8.78009 31.2535 8.72008 31.6736C8.66007 32.0937 8.76939 32.5204 9.024 32.8599ZM32 17.4999C32.4243 17.4999 32.8313 17.6684 33.1314 17.9685C33.4314 18.2686 33.6 18.6755 33.6 19.0999V30.2999C33.6 30.7242 33.4314 31.1312 33.1314 31.4313C32.8313 31.7313 32.4243 31.8999 32 31.8999C31.5757 31.8999 31.1687 31.7313 30.8686 31.4313C30.5686 31.1312 30.4 30.7242 30.4 30.2999V19.0999C30.4 18.6755 30.5686 18.2686 30.8686 17.9685C31.1687 17.6684 31.5757 17.4999 32 17.4999Z" fill="white"/>
<path fill-rule="evenodd" clip-rule="evenodd" d="M43.5928 33.5582C43.4829 33.9681 43.2148 34.3176 42.8473 34.5298C42.4798 34.7419 42.0431 34.7994 41.6332 34.6896L32.3603 32.2049C31.9504 32.0951 31.6009 31.8269 31.3888 31.4595C31.1766 31.092 31.1191 30.6552 31.2289 30.2453C31.3388 29.8355 31.6069 29.486 31.9744 29.2738C32.3419 29.0616 32.7786 29.0041 33.1885 29.114L42.4614 31.5986C42.8713 31.7085 43.2208 31.9766 43.4329 32.3441C43.6451 32.7116 43.7026 33.1483 43.5928 33.5582Z" fill="white"/>
</svg>
